:SAMPLES-PER-SECOND 30
:FULLY-SPECIFIED
:DEGREES
694
root  -53.2404 38.3207 -7.70338 -14.0098 -85.0235 7.69543
RightUpLeg  -11.8626 -4.1281 -4.92768
RightLeg  46.8511 4.38296 4.66785
RightFoot  -12.7148 -0.0248598 7.82072
RightToes  -1.33073e-015 0 -3.6325e-017
Spine  24.0664 2.54714 15.4438
Spine1  9.82076 9.04561 -11.0689
HEad  -7.00562 -18.0639 0.65921
LeftShoulder1  0.393898 2.46032 -31.6277
LeftArm  15.6456 11.4916 -40.5942
LeftForeArm  21.68 -25.9044 -4.40174
LeftHand  -0.0602761 7.05662 -1.41414
RightShoulder  0.104688 -3.11473 22.8796
RightArm  4.65328 56.7215 51.5916
RightForeArm  -8.10591 -0.134715 4.84173
RightHand  -1.15236 12.4192 -7.90116
LeftUpLeg  -21.8172 1.87769 -0.461511
LeftLeg  23.5069 -4.64996 -1.88121
LeftFoot  5.6975 -0.763303 4.86112
LeftToes  -1.63346e-009 7.54925e-011 9.86887e-012
695
root  -53.6875 38.1436 -7.49903 -32.5083 -85.4477 27.0622
RightUpLeg  -17.8505 -3.37612 -7.17873
RightLeg  55.0798 4.16228 5.97879
RightFoot  -6.66827 -0.483705 11.5077
RightToes  -1.33073e-015 0 -3.6325e-017
Spine  26.3394 2.65652 14.6437
Spine1  10.1051 10.009 -13.343
HEad  -8.66163 -19.4177 0.984755
LeftShoulder1  0.463833 2.26312 -31.2878
LeftArm  15.7448 9.4981 -40.6366
LeftForeArm  21.4082 -27.065 -4.67366
LeftHand  -0.0533595 7.30876 -0.758367
RightShoulder  0.307571 -2.33992 20.4841
RightArm  1.58652 60.2226 50.2847
RightForeArm  -11.2197 -1.92481 3.88482
RightHand  -1.2643 12.7896 -8.46483
LeftUpLeg  -23.0369 3.78575 -2.35118
LeftLeg  25.7715 -4.96978 -2.26717
LeftFoot  4.33116 -0.838818 5.89262
LeftToes  -1.63346e-009 7.54925e-011 9.86887e-012
696
root  -54.0464 38.0556 -7.30964 -38.7238 -84.6639 33.9212
RightUpLeg  -22.1053 -3.64962 -8.79742
RightLeg  58.63 3.79717 6.24275
RightFoot  -3.36049 -0.686271 9.40724
RightToes  -1.33073e-015 0 -3.6325e-017
Spine  28.7599 2.21549 14.0489
Spine1  10.2313 10.0301 -14.0532
HEad  -10.2703 -20.701 0.983429
LeftShoulder1  0.513229 2.11417 -30.8256
LeftArm  14.2921 8.3167 -41.1256
LeftForeArm  21.188 -29.3235 -5.19839
LeftHand  -0.0504951 7.27823 -0.654662
RightShoulder  0.416042 -1.81794 18.4482
RightArm  -1.08982 64.1159 48.0289
RightForeArm  -13.8827 -4.03214 3.3025
RightHand  -1.25105 12.7426 -8.40575
LeftUpLeg  -23.7479 4.54868 -3.73016
LeftLeg  27.0188 -5.64573 -2.76999
LeftFoot  3.39235 -0.825266 6.21485
LeftToes  -1.63346e-009 7.54925e-011 9.86887e-012
697
root  -54.3647 38.1475 -7.14697 -28.631 -83.5134 25.3346
RightUpLeg  -25.3989 -3.64002 -9.16765
RightLeg  56.3761 3.13411 4.65643
RightFoot  -3.90963 -0.609649 8.94536
RightToes  -1.33073e-015 0 -3.6325e-017
Spine  30.6347 1.3706 15.003
Spine1  10.0892 9.77051 -14.1241
HEad  -12.5198 -22.301 0.618203
LeftShoulder1  0.64981 1.72017 -30.3784
LeftArm  14.0316 7.21151 -41.9734
LeftForeArm  18.8625 -31.169 -5.7679
LeftHand  -0.0313955 6.27326 1.36319
RightShoulder  0.44736 -1.56112 16.5145
RightArm  -6.10197 67.3941 42.7382
RightForeArm  -15.3971 -5.23612 2.6131
RightHand  -1.26143 12.1743 -8.72533
LeftUpLeg  -24.8023 3.6582 -4.15842
LeftLeg  26.7879 -6.08977 -2.986
LeftFoot  3.45817 -0.864751 6.48857
LeftToes  -1.63346e-009 7.54925e-011 9.86887e-012
698
root  -54.6299 38.2874 -7.06445 -22.7415 -82.9783 20.8524
RightUpLeg  -27.4705 -1.77523 -9.42083
RightLeg  49.7974 3.10841 3.60027
RightFoot  -4.79224 -0.571396 9.48533
RightToes  -1.33073e-015 0 -3.6325e-017
Spine  32.4528 0.751361 16.2781
Spine1  10.6917 10.2274 -14.9294
HEad  -14.6213 -23.9766 1.01181
LeftShoulder1  0.80995 1.20257 -29.0892
LeftArm  13.3512 5.97547 -43.7271
LeftForeArm  16.5099 -32.7787 -6.30692
LeftHand  -0.0238419 5.36035 4.22472
RightShoulder  0.402512 -1.69343 15.7161
RightArm  -12.9156 70.8975 33.8836
RightForeArm  -16.6861 -5.99958 2.54479
RightHand  -1.04265 12.6648 -7.09574
LeftUpLeg  -25.5166 3.55113 -4.21612
LeftLeg  26.0136 -6.75844 -3.23627
LeftFoot  3.64814 -0.915059 6.77881
LeftToes  -1.63346e-009 7.54925e-011 9.86887e-012
699
root  -54.9074 38.3966 -7.06586 -17.6058 -82.1467 17.5361
RightUpLeg  -28.7986 1.48503 -10.324
RightLeg  40.4824 3.52279 2.93435
RightFoot  -6.41701 -0.528094 11.1703
RightToes  -1.33073e-015 0 -3.6325e-017
Spine  33.8981 0.194793 17.0497
Spine1  10.7417 10.4722 -15.547
HEad  -15.4353 -25.7872 1.61371
LeftShoulder1  0.859833 1.00496 -28.2854
LeftArm  13.2122 5.23982 -44.4414
LeftForeArm  16.3237 -35.1179 -6.93554
LeftHand  -0.00618923 6.35721 2.81352
RightShoulder  0.427909 -1.48297 14.5013
RightArm  -21.4431 72.4098 24.3403
RightForeArm  -16.6771 -5.83391 2.01021
RightHand  -0.940644 12.0776 -6.66376
LeftUpLeg  -26.7768 3.60828 -4.36594
LeftLeg  25.4194 -7.66294 -3.60889
LeftFoot  3.88778 -0.940667 6.85053
LeftToes  -1.63346e-009 7.54925e-011 9.86887e-012
700
root  -55.1944 38.5219 -7.10456 -12.2606 -80.4781 14.2283
RightUpLeg  -29.5112 6.14042 -12.4239
RightLeg  30.1367 5.04121 2.92859
RightFoot  -6.45151 -0.5268 11.3172
RightToes  -1.33073e-015 0 -3.6325e-017
Spine  34.8858 -0.334654 17.5688
Spine1  10.4405 10.1372 -14.8893
HEad  -16.8383 -26.5985 1.15729
LeftShoulder1  0.882118 0.959167 -28.5594
LeftArm  13.7709 4.68861 -43.8947
LeftForeArm  17.2165 -37.6333 -7.5832
LeftHand  -0.0230593 5.70227 2.18968
RightShoulder  0.440861 -1.29891 13.1494
RightArm  -28.6464 73.0098 15.0692
RightForeArm  -18.2914 -5.80569 2.07964
RightHand  -1.12846 11.4468 -8.16117
LeftUpLeg  -28.0031 2.87714 -4.63054
LeftLeg  24.2616 -8.77324 -3.96086
LeftFoot  4.41284 -0.983857 6.90824
LeftToes  -1.63346e-009 7.54925e-011 9.86887e-012
701
root  -55.5356 38.5894 -7.20157 -11.0278 -78.8757 14.6272
RightUpLeg  -29.7521 12.0457 -15.5577
RightLeg  20.9549 8.76551 3.33267
RightFoot  -6.16098 -0.679133 13.682
RightToes  -1.33073e-015 0 -3.6325e-017
Spine  35.8027 -0.762534 17.8675
Spine1  10.3979 10.0508 -14.7718
HEad  -17.9502 -27.5394 0.26371
LeftShoulder1  1.01323 0.556411 -28.2721
LeftArm  14.1543 4.69738 -43.7773
LeftForeArm  18.1186 -39.0436 -7.94399
LeftHand  -0.0232572 5.72866 2.15422
RightShoulder  0.425559 -1.30249 12.4064
RightArm  -34.8927 72.7887 7.29245
RightForeArm  -19.2014 -5.75264 1.90864
RightHand  -1.02639 11.8637 -7.28852
LeftUpLeg  -28.8902 2.34272 -5.20763
LeftLeg  23.5764 -9.84137 -4.33708
LeftFoot  4.62077 -1.00542 6.9608
LeftToes  -1.63346e-009 7.54925e-011 9.86887e-012
702
root  -55.8454 38.6662 -7.36496 -10.7354 -77.3423 15.4185
RightUpLeg  -29.589 14.9826 -16.7232
RightLeg  15.2075 15.1213 3.4352
RightFoot  -3.02892 -1.00238 14.2077
RightToes  -1.33073e-015 0 -3.6325e-017
Spine  36.7695 -0.992828 18.1646
Spine1  10.5878 9.95749 -14.2021
HEad  -19.5725 -28.1039 0.903256
LeftShoulder1  1.10762 0.256766 -27.9963
LeftArm  14.8763 4.48411 -43.7729
LeftForeArm  17.8721 -39.1406 -7.99099
LeftHand  -0.0311082 5.12979 3.11976
RightShoulder  0.378875 -1.50531 12.0129
RightArm  -39.0777 72.1045 1.99544
RightForeArm  -19.6415 -5.72503 1.61315
RightHand  -1.11541 12.6317 -7.61835
LeftUpLeg  -29.1937 1.39167 -5.55509
LeftLeg  22.7833 -10.3419 -4.39858
LeftFoot  4.89202 -1.00889 6.8589
LeftToes  -1.63346e-009 7.54925e-011 9.86887e-012
703
root  -56.1168 38.7998 -7.59085 -6.74121 -75.4241 12.6953
RightUpLeg  -30.0462 13.401 -14.8561
RightLeg  15.3191 18.1716 2.90164
RightFoot  1.79404 -0.972698 8.32714
RightToes  -1.33073e-015 0 -3.6325e-017
Spine  37.0907 -1.33378 19.3042
Spine1  10.8096 9.50343 -13.069
HEad  -20.388 -28.1809 0.427247
LeftShoulder1  1.12079 0.239173 -28.2242
LeftArm  15.3171 4.25009 -43.7018
LeftForeArm  17.6901 -38.3214 -7.75662
LeftHand  -0.0305158 5.31022 2.97268
RightShoulder  0.364682 -1.55603 11.7589
RightArm  -39.9157 70.4233 0.701026
RightForeArm  -19.2295 -5.4327 0.938283
RightHand  -0.988717 14.4668 -6.1672
LeftUpLeg  -29.6328 -0.602433 -4.84515
LeftLeg  21.3984 -10.6805 -4.25743
LeftFoot  5.42521 -0.950314 6.21767
LeftToes  -1.63346e-009 7.54925e-011 9.86887e-012
704
root  -56.4256 38.8405 -7.8792 -5.17493 -73.9537 12.4381
RightUpLeg  -31.3175 14.4335 -15.8662
RightLeg  15.9986 14.5806 2.62828
RightFoot  1.68985 -1.00036 8.84345
RightToes  -1.33073e-015 0 -3.6325e-017
Spine  37.1943 -1.45061 19.4853
Spine1  10.8358 9.33471 -12.8297
HEad  -20.7122 -26.8214 -0.234133
LeftShoulder1  1.12445 0.249363 -28.4501
LeftArm  14.6522 4.69953 -43.7167
LeftForeArm  18.4544 -37.4389 -7.4521
LeftHand  -0.0389943 5.6048 2.20929
RightShoulder  0.346442 -1.72017 12.5591
RightArm  -38.5896 68.4666 1.34476
RightForeArm  -19.8312 -2.80443 0.739798
RightHand  -1.25323 15.4426 -7.41719
LeftUpLeg  -30.5887 -3.02047 -4.13328
LeftLeg  20.9964 -9.89661 -3.84171
LeftFoot  5.51525 -0.868195 5.62663
LeftToes  -1.63346e-009 7.54925e-011 9.86887e-012
705
root  -56.765 38.8485 -8.18848 -3.28333 -72.4727 11.8958
RightUpLeg  -32.2865 11.8799 -15.536
RightLeg  16.6747 14.9435 3.74965
RightFoot  1.66699 -1.00231 8.8743
RightToes  -1.33073e-015 0 -3.6325e-017
Spine  36.0451 -1.45988 19.5761
Spine1  11.6953 9.19255 -12.6398
HEad  -22.1222 -22.9949 0.822419
LeftShoulder1  1.07547 0.397811 -28.5212
LeftArm  14.528 5.0933 -43.8483
LeftForeArm  17.3722 -36.4414 -7.23377
LeftHand  -0.0938216 3.52244 4.9597
RightShoulder  0.335663 -1.84711 13.5297
RightArm  -35.7982 65.9694 4.18953
RightForeArm  -18.4349 4.34281 0.871737
RightHand  -1.14791 16.5155 -6.48209
LeftUpLeg  -31.7902 -4.84418 -3.31608
LeftLeg  21.062 -9.53691 -3.70498
LeftFoot  5.2232 -0.792145 5.21996
LeftToes  -1.63346e-009 7.54925e-011 9.86887e-012
706
root  -57.1117 38.9212 -8.51661 -0.281982 -70.1032 9.41815
RightUpLeg  -31.671 7.84985 -13.4679
RightLeg  16.8116 16.3225 4.19068
RightFoot  1.73671 -0.995777 8.77385
RightToes  -1.33073e-015 0 -3.6325e-017
Spine  34.9648 -1.62244 19.9623
Spine1  12.1271 8.46654 -11.3258
HEad  -21.7959 -20.0331 -0.747261
LeftShoulder1  1.05411 0.500075 -29.0159
LeftArm  14.869 6.14482 -43.3959
LeftForeArm  17.3712 -36.1083 -7.14239
LeftHand  -0.0237672 5.41948 3.53723
RightShoulder  0.353157 -1.89131 15.3326
RightArm  -31.5792 63.1015 7.3926
RightForeArm  -15.9806 12.6828 2.09871
RightHand  -1.61712 17.5612 -8.59951
LeftUpLeg  -32.0792 -6.60143 -2.1184
LeftLeg  20.8109 -10.0874 -3.88492
LeftFoot  5.16643 -0.692242 4.55229
LeftToes  -1.63346e-009 7.54925e-011 9.86887e-012
707
root  -57.5226 39.0657 -8.84399 -0.739868 -68.0923 9.5802
RightUpLeg  -30.5544 6.5205 -12.7571
RightLeg  17.3408 15.6681 4.15412
RightFoot  1.74517 -0.814355 7.19802
RightToes  -1.33073e-015 0 -3.6325e-017
Spine  34.9325 -1.52005 19.3213
Spine1  11.6963 7.77308 -10.1142
HEad  -20.804 -17.3112 -3.25621
LeftShoulder1  0.9812 0.781417 -29.9516
LeftArm  16.359 6.98633 -42.2577
LeftForeArm  17.6522 -35.0898 -6.84567
LeftHand  -0.048913 4.63785 4.35064
RightShoulder  0.398707 -1.84434 17.7362
RightArm  -28.5821 59.5384 10.1947
RightForeArm  -9.11517 21.4334 4.54855
RightHand  -1.59903 17.8737 -8.39089
LeftUpLeg  -30.8452 -8.14295 -1.7269
LeftLeg  19.717 -10.5079 -3.82864
LeftFoot  5.31582 -0.544973 3.50297
LeftToes  -1.63346e-009 7.54925e-011 9.86887e-012
708
root  -57.9081 39.2139 -9.19273 -1.26501 -65.5292 9.53241
RightUpLeg  -29.1279 4.69199 -12.01
RightLeg  17.9746 14.9848 4.17337
RightFoot  1.67618 -0.608047 5.42276
RightToes  -1.33073e-015 0 -3.6325e-017
Spine  34.5332 -1.53005 19.0694
Spine1  11.6285 7.2637 -9.4374
HEad  -20.8414 -14.8087 -4.84559
LeftShoulder1  0.94752 0.864747 -29.8106
LeftArm  17.3307 7.73536 -42.0831
LeftForeArm  17.644 -34.4389 -6.6715
LeftHand  -0.0492559 4.69427 4.40958
RightShoulder  0.368983 -2.07164 19.7235
RightArm  -23.3924 55.1392 13.1115
RightForeArm  -5.07544 30.2861 6.93962
RightHand  -1.62852 17.972 -8.50395
LeftUpLeg  -29.4138 -9.74637 -1.45913
LeftLeg  18.5783 -11.5244 -3.9714
LeftFoot  5.89098 -0.418251 2.5253
LeftToes  -1.63346e-009 7.54925e-011 9.86887e-012
